<svg class="svg-icon" style="width: 1em;height: 1em;vertical-align: middle;fill: currentColor;overflow: hidden;" viewBox="0 0 1024 1024" version="1.1" xmlns="http://www.w3.org/2000/svg"><path d="M917.76 1015.68H106.24a97.28 97.28 0 0 1-97.92-97.92V106.24A97.28 97.28 0 0 1 106.24 8.32h811.52a97.28 97.28 0 0 1 97.92 97.92v811.52a97.28 97.28 0 0 1-97.92 97.92zM106.24 73.6a32.64 32.64 0 0 0-32.64 32.64v811.52a32.64 32.64 0 0 0 32.64 32.64h811.52a32.64 32.64 0 0 0 32.64-32.64V106.24a32.64 32.64 0 0 0-32.64-32.64z" fill="#323333" /><path d="M512 469.76H266.24a97.92 97.92 0 0 1-97.92-97.92V270.72A97.92 97.92 0 0 1 266.24 172.8h30.72a32.64 32.64 0 0 1 0 64h-30.72a32.64 32.64 0 0 0-32.64 32.64v102.4a32.64 32.64 0 0 0 32.64 32.64H512a32.64 32.64 0 1 1 0 64zM757.76 469.76h-30.72a32.64 32.64 0 0 1 0-64h30.72a32.64 32.64 0 0 0 32.64-32.64v-102.4a32.64 32.64 0 0 0-32.64-32.64H515.2a32.64 32.64 0 1 1 0-64h242.56a97.92 97.92 0 0 1 97.92 97.92v99.84a97.92 97.92 0 0 1-97.92 97.92zM512 851.2H266.24a97.92 97.92 0 0 1-97.92-97.92v-101.12a97.92 97.92 0 0 1 97.92-97.92h30.72a32.64 32.64 0 0 1 0 64h-30.72a32.64 32.64 0 0 0-32.64 32.64v101.12a32.64 32.64 0 0 0 32.64 32.64H512a32.64 32.64 0 1 1 0 64zM757.76 851.2h-30.72a32.64 32.64 0 0 1 0-64h30.72a32.64 32.64 0 0 0 32.64-32.64v-102.4a32.64 32.64 0 0 0-32.64-32.64H515.2a32.64 32.64 0 0 1 0-64h242.56a97.92 97.92 0 0 1 97.92 97.92v101.12a97.92 97.92 0 0 1-97.92 96.64z" fill="#323333" /></svg>