<svg class="svg-icon" style="width: 1em;height: 1em;vertical-align: middle;fill: currentColor;overflow: hidden;" viewBox="0 0 1024 1024" version="1.1" xmlns="http://www.w3.org/2000/svg"><path d="M853.32992 415.86688v-23.32672a68.25984 68.25984 0 0 0-68.25984-68.27008H676.4032A102.13376 102.13376 0 0 0 614.4 262.26688v-23.32672a68.27008 68.27008 0 0 0-68.27008-68.27008H300.93312C286.80192 131.00032 249.33376 102.4 204.8 102.4c-56.53504 0-102.4 45.86496-102.4 102.4 0 56.56576 45.86496 102.4 102.4 102.4 44.53376 0 82.03264-28.60032 96.13312-68.27008h245.1968v23.32672a102.20544 102.20544 0 0 0-62.0032 62.0032h-57.45664A68.27008 68.27008 0 0 0 358.4 392.52992v85.32992h-57.46688C286.80192 438.20032 249.33376 409.6 204.8 409.6c-56.53504 0-102.4 45.86496-102.4 102.4 0 56.55552 45.86496 102.4 102.4 102.4 44.53376 0 82.03264-28.55936 96.13312-68.25984H358.4a68.28032 68.28032 0 0 0 68.27008-68.27008v-85.32992h57.45664C498.2272 432.2304 535.72608 460.8 580.27008 460.8c44.53376 0 82.03264-28.5696 96.13312-68.27008h108.66688v23.32672C745.40032 429.99808 716.8 467.49696 716.8 512c0 44.544 28.60032 82.04288 68.27008 96.14336v23.31648H676.4032C662.30272 591.80032 624.80384 563.2 580.27008 563.2c-56.53504 0-102.4 45.86496-102.4 102.4 0 44.56448 28.60032 82.04288 68.25984 96.14336v23.31648H300.93312C286.80192 745.40032 249.33376 716.8 204.8 716.8c-56.53504 0-102.4 45.86496-102.4 102.4 0 56.59648 45.86496 102.4 102.4 102.4 44.53376 0 82.03264-28.5696 96.13312-68.27008h245.1968A68.25984 68.25984 0 0 0 614.4 785.05984v-23.31648a102.05184 102.05184 0 0 0 62.0032-62.0032h108.66688a68.27008 68.27008 0 0 0 68.25984-68.28032v-23.31648C893.0304 594.04288 921.6 556.544 921.6 512c0-44.50304-28.5696-82.00192-68.27008-96.13312zM204.8 238.92992c-18.80064 0-34.12992-15.33952-34.12992-34.12992s15.32928-34.12992 34.12992-34.12992 34.12992 15.33952 34.12992 34.12992-15.32928 34.12992-34.12992 34.12992z m0 307.21024c-18.80064 0-34.12992-15.33952-34.12992-34.14016s15.32928-34.12992 34.12992-34.12992 34.12992 15.33952 34.12992 34.12992-15.32928 34.14016-34.12992 34.14016z m375.47008-153.61024c-18.8416 0-34.14016-15.33952-34.14016-34.12992s15.29856-34.12992 34.14016-34.12992C599.10144 324.27008 614.4 339.59936 614.4 358.4s-15.29856 34.12992-34.12992 34.12992zM204.8 853.32992A34.17088 34.17088 0 0 1 170.67008 819.2c0-18.8416 15.32928-34.14016 34.12992-34.14016S238.92992 800.3584 238.92992 819.2A34.17088 34.17088 0 0 1 204.8 853.32992z m375.47008-153.58976c-18.8416 0-34.14016-15.29856-34.14016-34.14016s15.29856-34.14016 34.14016-34.14016C599.10144 631.45984 614.4 646.7584 614.4 665.6s-15.29856 34.14016-34.12992 34.14016z m238.92992-153.6c-18.83136 0-34.12992-15.33952-34.12992-34.14016s15.29856-34.12992 34.12992-34.12992 34.12992 15.33952 34.12992 34.12992-15.29856 34.14016-34.12992 34.14016z"  /></svg>