<svg class="svg-icon" style="width: 1em;height: 1em;vertical-align: middle;fill: currentColor;overflow: hidden;" viewBox="0 0 1024 1024" version="1.1" xmlns="http://www.w3.org/2000/svg"><path d="M567.168 183.168a193.536 193.536 0 0 1 280.533333 266.453333l-6.826666 7.253334-170.410667 170.325333a192 192 0 0 1-274.261333 0 42.666667 42.666667 0 1 1 60.928-59.733333 106.666667 106.666667 0 0 0 146.346666 5.632l6.357334-5.973334 170.666666-170.666666a108.202667 108.202667 0 0 0-147.328-158.208l-5.674666 5.248-21.333334 21.333333a42.666667 42.666667 0 0 1-63.872-56.32l3.541334-4.010667 21.333333-21.333333z" fill="#000000" /><path d="M490.666667 339.2a192 192 0 0 1 137.130666 57.6 42.666667 42.666667 0 0 1-60.928 59.733333 106.666667 106.666667 0 0 0-146.346666-5.632l-6.357334 5.973334-170.666666 170.666666a108.202667 108.202667 0 0 0 147.328 158.208l5.674666-5.248 21.333334-21.333333a42.666667 42.666667 0 0 1 63.872 56.32l-3.541334 4.010667-21.333333 21.333333a193.536 193.536 0 0 1-280.533333-266.453333l6.826666-7.253334L353.578667 396.8A192 192 0 0 1 490.666667 339.2z" fill="#000000" /></svg>