<svg class="svg-icon" style="width: 1em;height: 1em;vertical-align: middle;fill: currentColor;overflow: hidden;" viewBox="0 0 1024 1024" version="1.1" xmlns="http://www.w3.org/2000/svg"><path d="M0 0h1024v1024H0z" fill="#000000" opacity=".01" /><path d="M257.232 562.72h0.192c19.04 0 34.528-15.792 34.528-35.2 0-19.424-15.488-35.2-34.528-35.2-31.456 0-58-37.92-58-82.88 0-44.96 26.544-82.88 58-82.88 19.04 0 34.528-15.792 34.528-35.2s-15.488-35.2-34.528-35.2c-34.912 0-68.56 17.392-92.432 47.776-22.288 28.56-34.624 65.968-34.624 105.504 0 39.52 12.32 76.928 34.624 105.504 0.592 0.8 1.28 1.6 1.984 2.4-22.592 13.28-42.816 31.2-60.288 53.52C68.928 619.136 48 682.88 48 750.288c0 19.408 15.488 35.2 34.528 35.2s34.528-15.792 34.528-35.2c0-51.504 15.488-99.68 43.504-135.472 26.24-33.504 60.48-52 96.368-52a0.432 0.432 0 0 0 0.304-0.112z m644.272 8.144c-17.472-22.336-37.696-40.24-60.272-53.52 0.688-0.8 1.28-1.6 1.968-2.4 22.288-28.576 34.624-65.984 34.624-105.504 0-39.52-12.32-76.96-34.624-105.504-23.776-30.384-57.52-47.776-92.432-47.776-19.04 0-34.528 15.792-34.528 35.2s15.488 35.2 34.528 35.2c31.472 0 58 37.92 58 82.88 0 44.96-26.528 82.88-58 82.88-19.04 0-34.528 15.776-34.528 35.2 0 19.408 15.488 35.2 34.528 35.2h0.288c35.92 0 70.144 18.496 96.384 52 28.112 35.792 43.504 83.968 43.504 135.456 0 19.424 15.488 35.2 34.528 35.2S960 769.6 960 750.192c0.192-67.376-20.72-131.04-58.496-179.312z m-165.136 10.352a320.528 320.528 0 0 0-104.672-71.2 191.136 191.136 0 0 0 64.912-144.032C696.608 261.184 612.96 176 510.256 176c-102.784 0-186.336 85.28-186.336 189.984 0 57.328 25.056 108.832 64.512 143.728a320.48 320.48 0 0 0-105.44 71.52c-60.384 61.44-93.824 143.2-94.224 230.208l641.712 0.704v-0.8c-0.304-86.912-33.744-168.576-94.112-230.128z" fill="#A8ADBB" /></svg>