<svg class="svg-icon" style="width: 1em;height: 1em;vertical-align: middle;fill: currentColor;overflow: hidden;" viewBox="0 0 1024 1024" version="1.1" xmlns="http://www.w3.org/2000/svg"><path d="M112 112m32 0l736 0q32 0 32 32l0 736q0 32-32 32l-736 0q-32 0-32-32l0-736q0-32 32-32Z" fill="#FFFFFF" /><path d="M128 96h768a32 32 0 0 1 32 32v768a32 32 0 0 1-32 32H128a32 32 0 0 1-32-32V128a32 32 0 0 1 32-32z m0 32v768h768V128H128z m598.56 347.04l23.328 21.92-196.224 217.728-23.36-21.888 196.256-217.76z" fill="#5D6D7E" /><path d="M398.848 333.248l67.904-67.872 22.624 22.624-67.872 67.872-22.656-22.624z m-90.496 90.528L376.224 355.84l22.624 22.624-67.84 67.904-22.656-22.624z m57.536 206.56l-70.4 65.248-21.76-23.488 70.4-65.248 21.76 23.488z m93.888-87.008l-70.4 65.28-21.76-23.488 70.4-65.28 21.76 23.488z m93.888-87.008l-70.4 65.28-21.76-23.488 70.4-65.28 21.76 23.488z m118.464 7.68h-96v-32h96v32zM528 160a48 48 0 1 1 0 96 48 48 0 0 1 0-96z m0 32a16 16 0 1 0 0 32 16 16 0 0 0 0-32z m-288 256a48 48 0 1 1 0 96 48 48 0 0 1 0-96z m0 32a16 16 0 1 0 0 32 16 16 0 0 0 0-32z m0 224a48 48 0 1 1 0 96 48 48 0 0 1 0-96z m0 32a16 16 0 1 0 0 32 16 16 0 0 0 0-32z" fill="#A9B4C0" /><path d="M768 384a64 64 0 1 1 0 128 64 64 0 0 1 0-128z m0 32a32 32 0 1 0 0 64 32 32 0 0 0 0-64z" fill="#30AD98" /><path d="M512 672a64 64 0 1 1 0 128 64 64 0 0 1 0-128z m0 32a32 32 0 1 0 0 64 32 32 0 0 0 0-64z" fill="#27A2DF" /></svg>