<svg class="svg-icon" style="width: 1.0009765625em;height: 1em;vertical-align: middle;fill: currentColor;overflow: hidden;" viewBox="0 0 1025 1024" version="1.1" xmlns="http://www.w3.org/2000/svg"><path d="M991.971556 920.007111H64V71.964444a32.028444 32.028444 0 0 0-64 0v912.042667h992.028444a32.028444 32.028444 0 1 0 0-64z"  /><path d="M779.548444 635.960889z m-96.711111 0a96.711111 96.711111 0 1 0 96.711111-96.711111 96.711111 96.711111 0 0 0-96.711111 96.711111m-73.955555-225.848889a86.016 86.016 0 1 0-86.016-86.016 86.016 86.016 0 0 0 86.016 86.016z m202.979555-159.288889a86.016 86.016 0 1 0-86.016-86.016 86.016 86.016 0 0 0 86.016 86.016z m72.931556 223.573333a86.016 86.016 0 1 0-86.016-86.016 86.072889 86.072889 0 0 0 85.845333 86.243556zM101.888 700.472889a75.264 75.264 0 1 0 75.320889-75.377778 75.264 75.264 0 0 0-75.320889 75.377778z m215.096889-118.328889a107.576889 107.576889 0 1 0-107.52-107.576889 107.52 107.52 0 0 0 107.52 107.633778z m21.504 204.344889a75.264 75.264 0 1 0 75.264-75.264 75.264 75.264 0 0 0-75.264 75.320889z m204.344889-75.264a75.264 75.264 0 1 0-75.264-75.264 75.264 75.264 0 0 0 75.264 75.264z"  /></svg>