<?xml version="1.0"?>
<!DOCTYPE svg PUBLIC "-//W3C//DTD SVG 1.1//EN"
"http://www.w3.org/Graphics/SVG/1.1/DTD/svg11.dtd">
<svg version="1.1"
xmlns="http://www.w3.org/2000/svg"
xmlns:xlink="http://www.w3.org/1999/xlink"
viewBox="0.0 0.0 1150.0 779.4228634059946"><g><circle fill-opacity="0.7" cx="0.0" cy="0.0" r="3.0" />
<circle fill-opacity="0.7" cx="100.0" cy="0.0" r="3.0" />
<circle fill-opacity="0.7" cx="200.0" cy="0.0" r="3.0" />
<circle fill-opacity="0.7" cx="300.0" cy="0.0" r="3.0" />
<circle fill-opacity="0.7" cx="400.0" cy="0.0" r="3.0" />
<circle fill-opacity="0.7" cx="500.0" cy="0.0" r="3.0" />
<circle fill-opacity="0.7" cx="600.0" cy="0.0" r="3.0" />
<circle fill-opacity="0.7" cx="700.0" cy="0.0" r="3.0" />
<circle fill-opacity="0.7" cx="800.0" cy="0.0" r="3.0" />
<circle fill-opacity="0.7" cx="900.0" cy="0.0" r="3.0" />
<circle fill-opacity="0.7" cx="1000.0" cy="0.0" r="3.0" />
<circle fill-opacity="0.7" cx="1100.0" cy="0.0" r="3.0" />
<circle fill-opacity="0.7" cx="50.0" cy="28.86751345948128" r="3.0" />
<circle fill-opacity="0.7" cx="150.0" cy="28.86751345948128" r="3.0" />
<circle fill-opacity="0.7" cx="250.0" cy="28.86751345948128" r="3.0" />
<circle fill-opacity="0.7" cx="350.0" cy="28.86751345948128" r="3.0" />
<circle fill-opacity="0.7" cx="450.0" cy="28.86751345948128" r="3.0" />
<circle fill-opacity="0.7" cx="550.0" cy="28.86751345948128" r="3.0" />
<circle fill-opacity="0.7" cx="650.0" cy="28.86751345948128" r="3.0" />
<circle fill-opacity="0.7" cx="750.0" cy="28.86751345948128" r="3.0" />
<circle fill-opacity="0.7" cx="850.0" cy="28.86751345948128" r="3.0" />
<circle fill-opacity="0.7" cx="950.0" cy="28.86751345948128" r="3.0" />
<circle fill-opacity="0.7" cx="1050.0" cy="28.86751345948128" r="3.0" />
<circle fill-opacity="0.7" cx="1150.0" cy="28.86751345948128" r="3.0" />
<circle fill-opacity="0.7" cx="0.0" cy="57.73502691896256" r="3.0" />
<circle fill-opacity="0.7" cx="100.0" cy="57.73502691896256" r="3.0" />
<circle fill-opacity="0.7" cx="200.0" cy="57.73502691896256" r="3.0" />
<circle fill-opacity="0.7" cx="300.0" cy="57.73502691896256" r="3.0" />
<circle fill-opacity="0.7" cx="400.0" cy="57.73502691896256" r="3.0" />
<circle fill-opacity="0.7" cx="500.0" cy="57.73502691896256" r="3.0" />
<circle fill-opacity="0.7" cx="600.0" cy="57.73502691896256" r="3.0" />
<circle fill-opacity="0.7" cx="700.0" cy="57.73502691896256" r="3.0" />
<circle fill-opacity="0.7" cx="800.0" cy="57.73502691896256" r="3.0" />
<circle fill-opacity="0.7" cx="900.0" cy="57.73502691896256" r="3.0" />
<circle fill-opacity="0.7" cx="1000.0" cy="57.73502691896256" r="3.0" />
<circle fill-opacity="0.7" cx="1100.0" cy="57.73502691896256" r="3.0" />
<circle fill-opacity="0.7" cx="50.0" cy="86.60254037844385" r="3.0" />
<circle fill-opacity="0.7" cx="150.0" cy="86.60254037844385" r="3.0" />
<circle fill-opacity="0.7" cx="250.0" cy="86.60254037844385" r="3.0" />
<circle fill-opacity="0.7" cx="350.0" cy="86.60254037844385" r="3.0" />
<circle fill-opacity="0.7" cx="450.0" cy="86.60254037844385" r="3.0" />
<circle fill-opacity="0.7" cx="550.0" cy="86.60254037844385" r="3.0" />
<circle fill-opacity="0.7" cx="650.0" cy="86.60254037844385" r="3.0" />
<circle fill-opacity="0.7" cx="750.0" cy="86.60254037844385" r="3.0" />
<circle fill-opacity="0.7" cx="850.0" cy="86.60254037844385" r="3.0" />
<circle fill-opacity="0.7" cx="950.0" cy="86.60254037844385" r="3.0" />
<circle fill-opacity="0.7" cx="1050.0" cy="86.60254037844385" r="3.0" />
<circle fill-opacity="0.7" cx="1150.0" cy="86.60254037844385" r="3.0" />
<circle fill-opacity="0.7" cx="0.0" cy="115.47005383792512" r="3.0" />
<circle fill-opacity="0.7" cx="100.0" cy="115.47005383792512" r="3.0" />
<circle fill-opacity="0.7" cx="200.0" cy="115.47005383792512" r="3.0" />
<circle fill-opacity="0.7" cx="300.0" cy="115.47005383792512" r="3.0" />
<circle fill-opacity="0.7" cx="400.0" cy="115.47005383792512" r="3.0" />
<circle fill-opacity="0.7" cx="500.0" cy="115.47005383792512" r="3.0" />
<circle fill-opacity="0.7" cx="600.0" cy="115.47005383792512" r="3.0" />
<circle fill-opacity="0.7" cx="700.0" cy="115.47005383792512" r="3.0" />
<circle fill-opacity="0.7" cx="800.0" cy="115.47005383792512" r="3.0" />
<circle fill-opacity="0.7" cx="900.0" cy="115.47005383792512" r="3.0" />
<circle fill-opacity="0.7" cx="1000.0" cy="115.47005383792512" r="3.0" />
<circle fill-opacity="0.7" cx="1100.0" cy="115.47005383792512" r="3.0" />
<circle fill-opacity="0.7" cx="50.0" cy="144.3375672974064" r="3.0" />
<circle fill-opacity="0.7" cx="150.0" cy="144.3375672974064" r="3.0" />
<circle fill-opacity="0.7" cx="250.0" cy="144.3375672974064" r="3.0" />
<circle fill-opacity="0.7" cx="350.0" cy="144.3375672974064" r="3.0" />
<circle fill-opacity="0.7" cx="450.0" cy="144.3375672974064" r="3.0" />
<circle fill-opacity="0.7" cx="550.0" cy="144.3375672974064" r="3.0" />
<circle fill-opacity="0.7" cx="650.0" cy="144.3375672974064" r="3.0" />
<circle fill-opacity="0.7" cx="750.0" cy="144.3375672974064" r="3.0" />
<circle fill-opacity="0.7" cx="850.0" cy="144.3375672974064" r="3.0" />
<circle fill-opacity="0.7" cx="950.0" cy="144.3375672974064" r="3.0" />
<circle fill-opacity="0.7" cx="1050.0" cy="144.3375672974064" r="3.0" />
<circle fill-opacity="0.7" cx="1150.0" cy="144.3375672974064" r="3.0" />
<circle fill-opacity="0.7" cx="0.0" cy="173.2050807568877" r="3.0" />
<circle fill-opacity="0.7" cx="100.0" cy="173.2050807568877" r="3.0" />
<circle fill-opacity="0.7" cx="200.0" cy="173.2050807568877" r="3.0" />
<circle fill-opacity="0.7" cx="300.0" cy="173.2050807568877" r="3.0" />
<circle fill-opacity="0.7" cx="400.0" cy="173.2050807568877" r="3.0" />
<circle fill-opacity="0.7" cx="500.0" cy="173.2050807568877" r="3.0" />
<circle fill-opacity="0.7" cx="600.0" cy="173.2050807568877" r="3.0" />
<circle fill-opacity="0.7" cx="700.0" cy="173.2050807568877" r="3.0" />
<circle fill-opacity="0.7" cx="800.0" cy="173.2050807568877" r="3.0" />
<circle fill-opacity="0.7" cx="900.0" cy="173.2050807568877" r="3.0" />
<circle fill-opacity="0.7" cx="1000.0" cy="173.2050807568877" r="3.0" />
<circle fill-opacity="0.7" cx="1100.0" cy="173.2050807568877" r="3.0" />
<circle fill-opacity="0.7" cx="50.0" cy="202.07259421636897" r="3.0" />
<circle fill-opacity="0.7" cx="150.0" cy="202.07259421636897" r="3.0" />
<circle fill-opacity="0.7" cx="250.0" cy="202.07259421636897" r="3.0" />
<circle fill-opacity="0.7" cx="350.0" cy="202.07259421636897" r="3.0" />
<circle fill-opacity="0.7" cx="450.0" cy="202.07259421636897" r="3.0" />
<circle fill-opacity="0.7" cx="550.0" cy="202.07259421636897" r="3.0" />
<circle fill-opacity="0.7" cx="650.0" cy="202.07259421636897" r="3.0" />
<circle fill-opacity="0.7" cx="750.0" cy="202.07259421636897" r="3.0" />
<circle fill-opacity="0.7" cx="850.0" cy="202.07259421636897" r="3.0" />
<circle fill-opacity="0.7" cx="950.0" cy="202.07259421636897" r="3.0" />
<circle fill-opacity="0.7" cx="1050.0" cy="202.07259421636897" r="3.0" />
<circle fill-opacity="0.7" cx="1150.0" cy="202.07259421636897" r="3.0" />
<circle fill-opacity="0.7" cx="0.0" cy="230.94010767585024" r="3.0" />
<circle fill-opacity="0.7" cx="100.0" cy="230.94010767585024" r="3.0" />
<circle fill-opacity="0.7" cx="200.0" cy="230.94010767585024" r="3.0" />
<circle fill-opacity="0.7" cx="300.0" cy="230.94010767585024" r="3.0" />
<circle fill-opacity="0.7" cx="400.0" cy="230.94010767585024" r="3.0" />
<circle fill-opacity="0.7" cx="500.0" cy="230.94010767585024" r="3.0" />
<circle fill-opacity="0.7" cx="600.0" cy="230.94010767585024" r="3.0" />
<circle fill-opacity="0.7" cx="700.0" cy="230.94010767585024" r="3.0" />
<circle fill-opacity="0.7" cx="800.0" cy="230.94010767585024" r="3.0" />
<circle fill-opacity="0.7" cx="900.0" cy="230.94010767585024" r="3.0" />
<circle fill-opacity="0.7" cx="1000.0" cy="230.94010767585024" r="3.0" />
<circle fill-opacity="0.7" cx="1100.0" cy="230.94010767585024" r="3.0" />
<circle fill-opacity="0.7" cx="50.0" cy="259.80762113533154" r="3.0" />
<circle fill-opacity="0.7" cx="150.0" cy="259.80762113533154" r="3.0" />
<circle fill-opacity="0.7" cx="250.0" cy="259.80762113533154" r="3.0" />
<circle fill-opacity="0.7" cx="350.0" cy="259.80762113533154" r="3.0" />
<circle fill-opacity="0.7" cx="450.0" cy="259.80762113533154" r="3.0" />
<circle fill-opacity="0.7" cx="550.0" cy="259.80762113533154" r="3.0" />
<circle fill-opacity="0.7" cx="650.0" cy="259.80762113533154" r="3.0" />
<circle fill-opacity="0.7" cx="750.0" cy="259.80762113533154" r="3.0" />
<circle fill-opacity="0.7" cx="850.0" cy="259.80762113533154" r="3.0" />
<circle fill-opacity="0.7" cx="950.0" cy="259.80762113533154" r="3.0" />
<circle fill-opacity="0.7" cx="1050.0" cy="259.80762113533154" r="3.0" />
<circle fill-opacity="0.7" cx="1150.0" cy="259.80762113533154" r="3.0" />
<circle fill-opacity="0.7" cx="0.0" cy="288.6751345948128" r="3.0" />
<circle fill-opacity="0.7" cx="100.0" cy="288.6751345948128" r="3.0" />
<circle fill-opacity="0.7" cx="200.0" cy="288.6751345948128" r="3.0" />
<circle fill-opacity="0.7" cx="300.0" cy="288.6751345948128" r="3.0" />
<circle fill-opacity="0.7" cx="400.0" cy="288.6751345948128" r="3.0" />
<circle fill-opacity="0.7" cx="500.0" cy="288.6751345948128" r="3.0" />
<circle fill-opacity="0.7" cx="600.0" cy="288.6751345948128" r="3.0" />
<circle fill-opacity="0.7" cx="700.0" cy="288.6751345948128" r="3.0" />
<circle fill-opacity="0.7" cx="800.0" cy="288.6751345948128" r="3.0" />
<circle fill-opacity="0.7" cx="900.0" cy="288.6751345948128" r="3.0" />
<circle fill-opacity="0.7" cx="1000.0" cy="288.6751345948128" r="3.0" />
<circle fill-opacity="0.7" cx="1100.0" cy="288.6751345948128" r="3.0" />
<circle fill-opacity="0.7" cx="50.0" cy="317.5426480542941" r="3.0" />
<circle fill-opacity="0.7" cx="150.0" cy="317.5426480542941" r="3.0" />
<circle fill-opacity="0.7" cx="250.0" cy="317.5426480542941" r="3.0" />
<circle fill-opacity="0.7" cx="350.0" cy="317.5426480542941" r="3.0" />
<circle fill-opacity="0.7" cx="450.0" cy="317.5426480542941" r="3.0" />
<circle fill-opacity="0.7" cx="550.0" cy="317.5426480542941" r="3.0" />
<circle fill-opacity="0.7" cx="650.0" cy="317.5426480542941" r="3.0" />
<circle fill-opacity="0.7" cx="750.0" cy="317.5426480542941" r="3.0" />
<circle fill-opacity="0.7" cx="850.0" cy="317.5426480542941" r="3.0" />
<circle fill-opacity="0.7" cx="950.0" cy="317.5426480542941" r="3.0" />
<circle fill-opacity="0.7" cx="1050.0" cy="317.5426480542941" r="3.0" />
<circle fill-opacity="0.7" cx="1150.0" cy="317.5426480542941" r="3.0" />
<circle fill-opacity="0.7" cx="0.0" cy="346.4101615137754" r="3.0" />
<circle fill-opacity="0.7" cx="100.0" cy="346.4101615137754" r="3.0" />
<circle fill-opacity="0.7" cx="200.0" cy="346.4101615137754" r="3.0" />
<circle fill-opacity="0.7" cx="300.0" cy="346.4101615137754" r="3.0" />
<circle fill-opacity="0.7" cx="400.0" cy="346.4101615137754" r="3.0" />
<circle fill-opacity="0.7" cx="500.0" cy="346.4101615137754" r="3.0" />
<circle fill-opacity="0.7" cx="600.0" cy="346.4101615137754" r="3.0" />
<circle fill-opacity="0.7" cx="700.0" cy="346.4101615137754" r="3.0" />
<circle fill-opacity="0.7" cx="800.0" cy="346.4101615137754" r="3.0" />
<circle fill-opacity="0.7" cx="900.0" cy="346.4101615137754" r="3.0" />
<circle fill-opacity="0.7" cx="1000.0" cy="346.4101615137754" r="3.0" />
<circle fill-opacity="0.7" cx="1100.0" cy="346.4101615137754" r="3.0" />
<circle fill-opacity="0.7" cx="50.0" cy="375.27767497325664" r="3.0" />
<circle fill-opacity="0.7" cx="150.0" cy="375.27767497325664" r="3.0" />
<circle fill-opacity="0.7" cx="250.0" cy="375.27767497325664" r="3.0" />
<circle fill-opacity="0.7" cx="350.0" cy="375.27767497325664" r="3.0" />
<circle fill-opacity="0.7" cx="450.0" cy="375.27767497325664" r="3.0" />
<circle fill-opacity="0.7" cx="550.0" cy="375.27767497325664" r="3.0" />
<circle fill-opacity="0.7" cx="650.0" cy="375.27767497325664" r="3.0" />
<circle fill-opacity="0.7" cx="750.0" cy="375.27767497325664" r="3.0" />
<circle fill-opacity="0.7" cx="850.0" cy="375.27767497325664" r="3.0" />
<circle fill-opacity="0.7" cx="950.0" cy="375.27767497325664" r="3.0" />
<circle fill-opacity="0.7" cx="1050.0" cy="375.27767497325664" r="3.0" />
<circle fill-opacity="0.7" cx="1150.0" cy="375.27767497325664" r="3.0" />
<circle fill-opacity="0.7" cx="0.0" cy="404.14518843273794" r="3.0" />
<circle fill-opacity="0.7" cx="100.0" cy="404.14518843273794" r="3.0" />
<circle fill-opacity="0.7" cx="200.0" cy="404.14518843273794" r="3.0" />
<circle fill-opacity="0.7" cx="300.0" cy="404.14518843273794" r="3.0" />
<circle fill-opacity="0.7" cx="400.0" cy="404.14518843273794" r="3.0" />
<circle fill-opacity="0.7" cx="500.0" cy="404.14518843273794" r="3.0" />
<circle fill-opacity="0.7" cx="600.0" cy="404.14518843273794" r="3.0" />
<circle fill-opacity="0.7" cx="700.0" cy="404.14518843273794" r="3.0" />
<circle fill-opacity="0.7" cx="800.0" cy="404.14518843273794" r="3.0" />
<circle fill-opacity="0.7" cx="900.0" cy="404.14518843273794" r="3.0" />
<circle fill-opacity="0.7" cx="1000.0" cy="404.14518843273794" r="3.0" />
<circle fill-opacity="0.7" cx="1100.0" cy="404.14518843273794" r="3.0" />
<circle fill-opacity="0.7" cx="50.0" cy="433.01270189221924" r="3.0" />
<circle fill-opacity="0.7" cx="150.0" cy="433.01270189221924" r="3.0" />
<circle fill-opacity="0.7" cx="250.0" cy="433.01270189221924" r="3.0" />
<circle fill-opacity="0.7" cx="350.0" cy="433.01270189221924" r="3.0" />
<circle fill-opacity="0.7" cx="450.0" cy="433.01270189221924" r="3.0" />
<circle fill-opacity="0.7" cx="550.0" cy="433.01270189221924" r="3.0" />
<circle fill-opacity="0.7" cx="650.0" cy="433.01270189221924" r="3.0" />
<circle fill-opacity="0.7" cx="750.0" cy="433.01270189221924" r="3.0" />
<circle fill-opacity="0.7" cx="850.0" cy="433.01270189221924" r="3.0" />
<circle fill-opacity="0.7" cx="950.0" cy="433.01270189221924" r="3.0" />
<circle fill-opacity="0.7" cx="1050.0" cy="433.01270189221924" r="3.0" />
<circle fill-opacity="0.7" cx="1150.0" cy="433.01270189221924" r="3.0" />
<circle fill-opacity="0.7" cx="0.0" cy="461.8802153517005" r="3.0" />
<circle fill-opacity="0.7" cx="100.0" cy="461.8802153517005" r="3.0" />
<circle fill-opacity="0.7" cx="200.0" cy="461.8802153517005" r="3.0" />
<circle fill-opacity="0.7" cx="300.0" cy="461.8802153517005" r="3.0" />
<circle fill-opacity="0.7" cx="400.0" cy="461.8802153517005" r="3.0" />
<circle fill-opacity="0.7" cx="500.0" cy="461.8802153517005" r="3.0" />
<circle fill-opacity="0.7" cx="600.0" cy="461.8802153517005" r="3.0" />
<circle fill-opacity="0.7" cx="700.0" cy="461.8802153517005" r="3.0" />
<circle fill-opacity="0.7" cx="800.0" cy="461.8802153517005" r="3.0" />
<circle fill-opacity="0.7" cx="900.0" cy="461.8802153517005" r="3.0" />
<circle fill-opacity="0.7" cx="1000.0" cy="461.8802153517005" r="3.0" />
<circle fill-opacity="0.7" cx="1100.0" cy="461.8802153517005" r="3.0" />
<circle fill-opacity="0.7" cx="50.0" cy="490.7477288111818" r="3.0" />
<circle fill-opacity="0.7" cx="150.0" cy="490.7477288111818" r="3.0" />
<circle fill-opacity="0.7" cx="250.0" cy="490.7477288111818" r="3.0" />
<circle fill-opacity="0.7" cx="350.0" cy="490.7477288111818" r="3.0" />
<circle fill-opacity="0.7" cx="450.0" cy="490.7477288111818" r="3.0" />
<circle fill-opacity="0.7" cx="550.0" cy="490.7477288111818" r="3.0" />
<circle fill-opacity="0.7" cx="650.0" cy="490.7477288111818" r="3.0" />
<circle fill-opacity="0.7" cx="750.0" cy="490.7477288111818" r="3.0" />
<circle fill-opacity="0.7" cx="850.0" cy="490.7477288111818" r="3.0" />
<circle fill-opacity="0.7" cx="950.0" cy="490.7477288111818" r="3.0" />
<circle fill-opacity="0.7" cx="1050.0" cy="490.7477288111818" r="3.0" />
<circle fill-opacity="0.7" cx="1150.0" cy="490.7477288111818" r="3.0" />
<circle fill-opacity="0.7" cx="0.0" cy="519.6152422706631" r="3.0" />
<circle fill-opacity="0.7" cx="100.0" cy="519.6152422706631" r="3.0" />
<circle fill-opacity="0.7" cx="200.0" cy="519.6152422706631" r="3.0" />
<circle fill-opacity="0.7" cx="300.0" cy="519.6152422706631" r="3.0" />
<circle fill-opacity="0.7" cx="400.0" cy="519.6152422706631" r="3.0" />
<circle fill-opacity="0.7" cx="500.0" cy="519.6152422706631" r="3.0" />
<circle fill-opacity="0.7" cx="600.0" cy="519.6152422706631" r="3.0" />
<circle fill-opacity="0.7" cx="700.0" cy="519.6152422706631" r="3.0" />
<circle fill-opacity="0.7" cx="800.0" cy="519.6152422706631" r="3.0" />
<circle fill-opacity="0.7" cx="900.0" cy="519.6152422706631" r="3.0" />
<circle fill-opacity="0.7" cx="1000.0" cy="519.6152422706631" r="3.0" />
<circle fill-opacity="0.7" cx="1100.0" cy="519.6152422706631" r="3.0" />
<circle fill-opacity="0.7" cx="50.0" cy="548.4827557301444" r="3.0" />
<circle fill-opacity="0.7" cx="150.0" cy="548.4827557301444" r="3.0" />
<circle fill-opacity="0.7" cx="250.0" cy="548.4827557301444" r="3.0" />
<circle fill-opacity="0.7" cx="350.0" cy="548.4827557301444" r="3.0" />
<circle fill-opacity="0.7" cx="450.0" cy="548.4827557301444" r="3.0" />
<circle fill-opacity="0.7" cx="550.0" cy="548.4827557301444" r="3.0" />
<circle fill-opacity="0.7" cx="650.0" cy="548.4827557301444" r="3.0" />
<circle fill-opacity="0.7" cx="750.0" cy="548.4827557301444" r="3.0" />
<circle fill-opacity="0.7" cx="850.0" cy="548.4827557301444" r="3.0" />
<circle fill-opacity="0.7" cx="950.0" cy="548.4827557301444" r="3.0" />
<circle fill-opacity="0.7" cx="1050.0" cy="548.4827557301444" r="3.0" />
<circle fill-opacity="0.7" cx="1150.0" cy="548.4827557301444" r="3.0" />
<circle fill-opacity="0.7" cx="0.0" cy="577.3502691896256" r="3.0" />
<circle fill-opacity="0.7" cx="100.0" cy="577.3502691896256" r="3.0" />
<circle fill-opacity="0.7" cx="200.0" cy="577.3502691896256" r="3.0" />
<circle fill-opacity="0.7" cx="300.0" cy="577.3502691896256" r="3.0" />
<circle fill-opacity="0.7" cx="400.0" cy="577.3502691896256" r="3.0" />
<circle fill-opacity="0.7" cx="500.0" cy="577.3502691896256" r="3.0" />
<circle fill-opacity="0.7" cx="600.0" cy="577.3502691896256" r="3.0" />
<circle fill-opacity="0.7" cx="700.0" cy="577.3502691896256" r="3.0" />
<circle fill-opacity="0.7" cx="800.0" cy="577.3502691896256" r="3.0" />
<circle fill-opacity="0.7" cx="900.0" cy="577.3502691896256" r="3.0" />
<circle fill-opacity="0.7" cx="1000.0" cy="577.3502691896256" r="3.0" />
<circle fill-opacity="0.7" cx="1100.0" cy="577.3502691896256" r="3.0" />
<circle fill-opacity="0.7" cx="50.0" cy="606.2177826491069" r="3.0" />
<circle fill-opacity="0.7" cx="150.0" cy="606.2177826491069" r="3.0" />
<circle fill-opacity="0.7" cx="250.0" cy="606.2177826491069" r="3.0" />
<circle fill-opacity="0.7" cx="350.0" cy="606.2177826491069" r="3.0" />
<circle fill-opacity="0.7" cx="450.0" cy="606.2177826491069" r="3.0" />
<circle fill-opacity="0.7" cx="550.0" cy="606.2177826491069" r="3.0" />
<circle fill-opacity="0.7" cx="650.0" cy="606.2177826491069" r="3.0" />
<circle fill-opacity="0.7" cx="750.0" cy="606.2177826491069" r="3.0" />
<circle fill-opacity="0.7" cx="850.0" cy="606.2177826491069" r="3.0" />
<circle fill-opacity="0.7" cx="950.0" cy="606.2177826491069" r="3.0" />
<circle fill-opacity="0.7" cx="1050.0" cy="606.2177826491069" r="3.0" />
<circle fill-opacity="0.7" cx="1150.0" cy="606.2177826491069" r="3.0" />
<circle fill-opacity="0.7" cx="0.0" cy="635.0852961085882" r="3.0" />
<circle fill-opacity="0.7" cx="100.0" cy="635.0852961085882" r="3.0" />
<circle fill-opacity="0.7" cx="200.0" cy="635.0852961085882" r="3.0" />
<circle fill-opacity="0.7" cx="300.0" cy="635.0852961085882" r="3.0" />
<circle fill-opacity="0.7" cx="400.0" cy="635.0852961085882" r="3.0" />
<circle fill-opacity="0.7" cx="500.0" cy="635.0852961085882" r="3.0" />
<circle fill-opacity="0.7" cx="600.0" cy="635.0852961085882" r="3.0" />
<circle fill-opacity="0.7" cx="700.0" cy="635.0852961085882" r="3.0" />
<circle fill-opacity="0.7" cx="800.0" cy="635.0852961085882" r="3.0" />
<circle fill-opacity="0.7" cx="900.0" cy="635.0852961085882" r="3.0" />
<circle fill-opacity="0.7" cx="1000.0" cy="635.0852961085882" r="3.0" />
<circle fill-opacity="0.7" cx="1100.0" cy="635.0852961085882" r="3.0" />
<circle fill-opacity="0.7" cx="50.0" cy="663.9528095680695" r="3.0" />
<circle fill-opacity="0.7" cx="150.0" cy="663.9528095680695" r="3.0" />
<circle fill-opacity="0.7" cx="250.0" cy="663.9528095680695" r="3.0" />
<circle fill-opacity="0.7" cx="350.0" cy="663.9528095680695" r="3.0" />
<circle fill-opacity="0.7" cx="450.0" cy="663.9528095680695" r="3.0" />
<circle fill-opacity="0.7" cx="550.0" cy="663.9528095680695" r="3.0" />
<circle fill-opacity="0.7" cx="650.0" cy="663.9528095680695" r="3.0" />
<circle fill-opacity="0.7" cx="750.0" cy="663.9528095680695" r="3.0" />
<circle fill-opacity="0.7" cx="850.0" cy="663.9528095680695" r="3.0" />
<circle fill-opacity="0.7" cx="950.0" cy="663.9528095680695" r="3.0" />
<circle fill-opacity="0.7" cx="1050.0" cy="663.9528095680695" r="3.0" />
<circle fill-opacity="0.7" cx="1150.0" cy="663.9528095680695" r="3.0" />
<circle fill-opacity="0.7" cx="0.0" cy="692.8203230275508" r="3.0" />
<circle fill-opacity="0.7" cx="100.0" cy="692.8203230275508" r="3.0" />
<circle fill-opacity="0.7" cx="200.0" cy="692.8203230275508" r="3.0" />
<circle fill-opacity="0.7" cx="300.0" cy="692.8203230275508" r="3.0" />
<circle fill-opacity="0.7" cx="400.0" cy="692.8203230275508" r="3.0" />
<circle fill-opacity="0.7" cx="500.0" cy="692.8203230275508" r="3.0" />
<circle fill-opacity="0.7" cx="600.0" cy="692.8203230275508" r="3.0" />
<circle fill-opacity="0.7" cx="700.0" cy="692.8203230275508" r="3.0" />
<circle fill-opacity="0.7" cx="800.0" cy="692.8203230275508" r="3.0" />
<circle fill-opacity="0.7" cx="900.0" cy="692.8203230275508" r="3.0" />
<circle fill-opacity="0.7" cx="1000.0" cy="692.8203230275508" r="3.0" />
<circle fill-opacity="0.7" cx="1100.0" cy="692.8203230275508" r="3.0" />
<circle fill-opacity="0.7" cx="50.0" cy="721.687836487032" r="3.0" />
<circle fill-opacity="0.7" cx="150.0" cy="721.687836487032" r="3.0" />
<circle fill-opacity="0.7" cx="250.0" cy="721.687836487032" r="3.0" />
<circle fill-opacity="0.7" cx="350.0" cy="721.687836487032" r="3.0" />
<circle fill-opacity="0.7" cx="450.0" cy="721.687836487032" r="3.0" />
<circle fill-opacity="0.7" cx="550.0" cy="721.687836487032" r="3.0" />
<circle fill-opacity="0.7" cx="650.0" cy="721.687836487032" r="3.0" />
<circle fill-opacity="0.7" cx="750.0" cy="721.687836487032" r="3.0" />
<circle fill-opacity="0.7" cx="850.0" cy="721.687836487032" r="3.0" />
<circle fill-opacity="0.7" cx="950.0" cy="721.687836487032" r="3.0" />
<circle fill-opacity="0.7" cx="1050.0" cy="721.687836487032" r="3.0" />
<circle fill-opacity="0.7" cx="1150.0" cy="721.687836487032" r="3.0" />
<circle fill-opacity="0.7" cx="0.0" cy="750.5553499465133" r="3.0" />
<circle fill-opacity="0.7" cx="100.0" cy="750.5553499465133" r="3.0" />
<circle fill-opacity="0.7" cx="200.0" cy="750.5553499465133" r="3.0" />
<circle fill-opacity="0.7" cx="300.0" cy="750.5553499465133" r="3.0" />
<circle fill-opacity="0.7" cx="400.0" cy="750.5553499465133" r="3.0" />
<circle fill-opacity="0.7" cx="500.0" cy="750.5553499465133" r="3.0" />
<circle fill-opacity="0.7" cx="600.0" cy="750.5553499465133" r="3.0" />
<circle fill-opacity="0.7" cx="700.0" cy="750.5553499465133" r="3.0" />
<circle fill-opacity="0.7" cx="800.0" cy="750.5553499465133" r="3.0" />
<circle fill-opacity="0.7" cx="900.0" cy="750.5553499465133" r="3.0" />
<circle fill-opacity="0.7" cx="1000.0" cy="750.5553499465133" r="3.0" />
<circle fill-opacity="0.7" cx="1100.0" cy="750.5553499465133" r="3.0" />
<circle fill-opacity="0.7" cx="50.0" cy="779.4228634059946" r="3.0" />
<circle fill-opacity="0.7" cx="150.0" cy="779.4228634059946" r="3.0" />
<circle fill-opacity="0.7" cx="250.0" cy="779.4228634059946" r="3.0" />
<circle fill-opacity="0.7" cx="350.0" cy="779.4228634059946" r="3.0" />
<circle fill-opacity="0.7" cx="450.0" cy="779.4228634059946" r="3.0" />
<circle fill-opacity="0.7" cx="550.0" cy="779.4228634059946" r="3.0" />
<circle fill-opacity="0.7" cx="650.0" cy="779.4228634059946" r="3.0" />
<circle fill-opacity="0.7" cx="750.0" cy="779.4228634059946" r="3.0" />
<circle fill-opacity="0.7" cx="850.0" cy="779.4228634059946" r="3.0" />
<circle fill-opacity="0.7" cx="950.0" cy="779.4228634059946" r="3.0" />
<circle fill-opacity="0.7" cx="1050.0" cy="779.4228634059946" r="3.0" />
<circle fill-opacity="0.7" cx="1150.0" cy="779.4228634059946" r="3.0" />
</g><line stroke-linecap="round" x1="600.0" y1="461.8802153517005" x2="600.0" y2="288.6751345948128" style="stroke:black;stroke-width:3.0;" />
<line stroke-linecap="round" x1="350.0" y1="317.5426480542941" x2="350.0" y2="490.7477288111818" style="stroke:black;stroke-width:3.0;" />
<line stroke-linecap="round" x1="450.0" y1="490.7477288111818" x2="600.0" y2="404.14518843273794" style="stroke:black;stroke-width:3.0;" />
<line stroke-linecap="round" x1="600.0" y1="288.6751345948128" x2="450.0" y2="375.27767497325664" style="stroke:black;stroke-width:3.0;" />
<line stroke-linecap="round" x1="300.0" y1="461.8802153517005" x2="450.0" y2="548.4827557301444" style="stroke:black;stroke-width:3.0;" />
<line stroke-linecap="round" x1="400.0" y1="230.94010767585024" x2="450.0" y2="202.07259421636897" style="stroke:black;stroke-width:3.0;" />
<line stroke-linecap="round" x1="550.0" y1="317.5426480542941" x2="550.0" y2="490.7477288111818" style="stroke:black;stroke-width:3.0;" />
<line stroke-linecap="round" x1="450.0" y1="259.80762113533154" x2="400.0" y2="230.94010767585024" style="stroke:black;stroke-width:3.0;" />
<line stroke-linecap="round" x1="450.0" y1="433.01270189221924" x2="600.0" y2="346.4101615137754" style="stroke:black;stroke-width:3.0;" />
<line stroke-linecap="round" x1="350.0" y1="259.80762113533154" x2="500.0" y2="346.4101615137754" style="stroke:black;stroke-width:3.0;" />
<line stroke-linecap="round" x1="450.0" y1="375.27767497325664" x2="450.0" y2="548.4827557301444" style="stroke:black;stroke-width:3.0;" />
<line stroke-linecap="round" x1="450.0" y1="375.27767497325664" x2="300.0" y2="288.6751345948128" style="stroke:black;stroke-width:3.0;" />
<line stroke-linecap="round" x1="500.0" y1="230.94010767585024" x2="450.0" y2="259.80762113533154" style="stroke:black;stroke-width:3.0;" />
<line stroke-linecap="round" x1="450.0" y1="259.80762113533154" x2="350.0" y2="317.5426480542941" style="stroke:black;stroke-width:3.0;" />
<line stroke-linecap="round" x1="300.0" y1="288.6751345948128" x2="400.0" y2="230.94010767585024" style="stroke:black;stroke-width:3.0;" />
<line stroke-linecap="round" x1="500.0" y1="288.6751345948128" x2="550.0" y2="259.80762113533154" style="stroke:black;stroke-width:3.0;" />
<line stroke-linecap="round" x1="500.0" y1="346.4101615137754" x2="500.0" y2="519.6152422706631" style="stroke:black;stroke-width:3.0;" />
<line stroke-linecap="round" x1="500.0" y1="288.6751345948128" x2="400.0" y2="346.4101615137754" style="stroke:black;stroke-width:3.0;" />
<line stroke-linecap="round" x1="300.0" y1="404.14518843273794" x2="450.0" y2="490.7477288111818" style="stroke:black;stroke-width:3.0;" />
<line stroke-linecap="round" x1="400.0" y1="346.4101615137754" x2="400.0" y2="519.6152422706631" style="stroke:black;stroke-width:3.0;" />
<line stroke-linecap="round" x1="450.0" y1="259.80762113533154" x2="550.0" y2="317.5426480542941" style="stroke:black;stroke-width:3.0;" />
<line stroke-linecap="round" x1="450.0" y1="202.07259421636897" x2="500.0" y2="230.94010767585024" style="stroke:black;stroke-width:3.0;" />
<line stroke-linecap="round" x1="500.0" y1="230.94010767585024" x2="600.0" y2="288.6751345948128" style="stroke:black;stroke-width:3.0;" />
<line stroke-linecap="round" x1="300.0" y1="288.6751345948128" x2="300.0" y2="461.8802153517005" style="stroke:black;stroke-width:3.0;" />
<line stroke-linecap="round" x1="450.0" y1="548.4827557301444" x2="600.0" y2="461.8802153517005" style="stroke:black;stroke-width:3.0;" />
<line stroke-linecap="round" x1="300.0" y1="346.4101615137754" x2="450.0" y2="433.01270189221924" style="stroke:black;stroke-width:3.0;" />
</svg>